{"title":"Gangs of Wasseypur 2012 Hindi DvDrip 720p x264...Hon3y","uid":7668509,"size":2867416582,"categoryP":"video","categoryS":"hd___movies","magnet":"?xt=urn:btih:d24c0d0c08c4a2bc1be73d0aff2f7bf2ea9ad79f&amp;dn=Gangs+of+Wasseypur+2012+Hindi+DvDrip+720p+x264...Hon3y&amp;tr=udp%3A%2F%2Ftracker.openbittorrent.com%3A80&amp;tr=udp%3A%2F%2Fopen.demonii.com%3A1337&amp;tr=udp%3A%2F%2Ftracker.coppersurfer.tk%3A6969&amp;tr=udp%3A%2F%2Fexodus.desync.com%3A6969","seeders":1,"leechers":2,"uploader":"honey8ee","files":-1,"time":1348507055,"description":" &lt;a href=&quot;http://en.wikipedia.org/wiki/Gangs_of_Wasseypur_-_Part_1&quot; rel=&quot;nofollow&quot; target=&quot;_NEW&quot;&gt;http://en.wikipedia.org/wiki/Gangs_of_Wasseypur_-_Part_1&lt;/a&gt;\n &lt;a href=&quot;\nhttp://www.imdb.com/title/tt1954470/&quot; rel=&quot;nofollow&quot; target=&quot;_NEW&quot;&gt;\nhttp://www.imdb.com/title/tt1954470/&lt;/a&gt;\n\n\nFormat                                   : Matroska\nFormat version                           : Version 2\nFile size                                : 2.65 GiB\nDuration                                 : 2h 34mn\nOverall bit rate                         : 2 449 Kbps\n\n\nVideo\nID                                       : 1\nFormat                                   : AVC\nFormat/Info                              : Advanced Video Codec\nFormat profile                           : &lt;a class=&quot;__cf_email__&quot; href=&quot;/cdn-cgi/l/email-protection&quot; data-cfemail=&quot;3971505e5179750d1708&quot;&gt;[email&amp;#160;protected]&lt;/a&gt;&lt;script cf-hash='f9e31' type=&quot;text/javascript&quot;&gt;\n/* &lt;![CDATA[ */!function(){try{var t=&quot;currentScript&quot;in document?document.currentScript:function(){for(var t=document.getElementsByTagName(&quot;script&quot;),e=t.length;e--;)if(t[e].getAttribute(&quot;cf-hash&quot;))return t[e]}();if(t&amp;&amp;t.previousSibling){var e,r,n,i,c=t.previousSibling,a=c.getAttribute(&quot;data-cfemail&quot;);if(a){for(e=&quot;&quot;,r=parseInt(a.substr(0,2),16),n=2;a.length-n;n+=2)i=parseInt(a.substr(n,2),16)^r,e+=String.fromCharCode(i);e=document.createTextNode(e),c.parentNode.replaceChild(e,c)}}}catch(u){}}();/* ]]&gt; */&lt;/script&gt;\nFormat settings, CABAC                   : Yes\nFormat settings, ReFrames                : 4 frames\nMuxing mode                              : Header stripping\nCodec ID                                 : V_MPEG4/ISO/AVC\nDuration                                 : 2h 34mn\nBit rate                                 : 2 000 Kbps\nWidth                                    : 1 280 pixels\nHeight                                   : 544 pixels\nDisplay aspect ratio                     : 2.35:1\nOriginal display aspect ratio            : 2.35:1\nFrame rate                               : 23.976 fps\nColor space                              : YUV\nChroma subsampling                       : 4:2:0\nBit depth                                : 8 bits\nScan type                                : Progressive\nBits/(Pixel*Frame)                       : 0.120\nStream size                              : 2.11 GiB (80%)\n\nAudio\nID                                       : 2\nFormat                                   : AC-3\nBit rate mode                            : Constant\nBit rate                                 : 448 Kbps\nChannel(s)                               : 6 channels\nChannel positions                        : Front: L C R, Side: L R, LFE\nSampling rate                            : 48.0 KHz\nBit depth                                : 16 bits\nCompression mode                         : Lossy\nStream size                              : 496 MiB (18%)\nLanguage                                 : Hindi\n\n\n &lt;a href=&quot;\nhttp://www.shotpix.com/images/98644857428422662898.png&quot; rel=&quot;nofollow&quot; target=&quot;_NEW&quot;&gt;\nhttp://www.shotpix.com/images/98644857428422662898.png&lt;/a&gt;\n &lt;a href=&quot;\nhttp://www.shotpix.com/images/82218878445449380472.png&quot; rel=&quot;nofollow&quot; target=&quot;_NEW&quot;&gt;\nhttp://www.shotpix.com/images/82218878445449380472.png&lt;/a&gt;\n &lt;a href=&quot;\nhttp://www.shotpix.com/images/83914505770446926229.png&quot; rel=&quot;nofollow&quot; target=&quot;_NEW&quot;&gt;\nhttp://www.shotpix.com/images/83914505770446926229.png&lt;/a&gt;\n &lt;a href=&quot;\nhttp://www.shotpix.com/images/75591283829798576915.png&quot; rel=&quot;nofollow&quot; target=&quot;_NEW&quot;&gt;\nhttp://www.shotpix.com/images/75591283829798576915.png&lt;/a&gt;\n &lt;a href=&quot;\nhttp://www.shotpix.com/images/22800695738355013778.png&quot; rel=&quot;nofollow&quot; target=&quot;_NEW&quot;&gt;\nhttp://www.shotpix.com/images/22800695738355013778.png&lt;/a&gt;\n &lt;a href=&quot;\nhttp://www.shotpix.com/images/74054711419687975831.png&quot; rel=&quot;nofollow&quot; target=&quot;_NEW&quot;&gt;\nhttp://www.shotpix.com/images/74054711419687975831.png&lt;/a&gt;\n &lt;a href=&quot;\nhttp://www.shotpix.com/images/30849494083013177205.png&quot; rel=&quot;nofollow&quot; target=&quot;_NEW&quot;&gt;\nhttp://www.shotpix.com/images/30849494083013177205.png&lt;/a&gt;\n &lt;a href=&quot;\nhttp://www.shotpix.com/images/79775341532707780858.png&quot; rel=&quot;nofollow&quot; target=&quot;_NEW&quot;&gt;\nhttp://www.shotpix.com/images/79775341532707780858.png&lt;/a&gt;\n &lt;a href=&quot;\nhttp://www.shotpix.com/images/37370757679291996224.png&quot; rel=&quot;nofollow&quot; target=&quot;_NEW&quot;&gt;\nhttp://www.shotpix.com/images/37370757679291996224.png&lt;/a&gt;\n\n\n                                  Check the Smple First","torrent":{"xt":"urn:btih:d24c0d0c08c4a2bc1be73d0aff2f7bf2ea9ad79f","amp;dn":"Gangs+of+Wasseypur+2012+Hindi+DvDrip+720p+x264...Hon3y","amp;tr":["udp%3A%2F%2Ftracker.openbittorrent.com%3A80","udp%3A%2F%2Fopen.demonii.com%3A1337","udp%3A%2F%2Ftracker.coppersurfer.tk%3A6969","udp%3A%2F%2Fexodus.desync.com%3A6969"],"infoHash":"d24c0d0c08c4a2bc1be73d0aff2f7bf2ea9ad79f","infoHashBuffer":{"type":"Buffer","data":[210,76,13,12,8,196,162,188,27,231,61,10,255,47,123,242,234,154,215,159]},"announce":[],"urlList":[]}}